<mxfile host="app.diagrams.net" agent="Mozilla/5.0 (Windows NT 10.0; Win64; x64) AppleWebKit/537.36 (KHTML, like Gecko) Chrome/135.0.0.0 Safari/537.36" version="26.2.14">
  <diagram name="Page-1" id="2YBvvXClWsGukQMizWep">
    <mxGraphModel grid="1" page="1" gridSize="10" guides="1" tooltips="1" connect="1" arrows="1" fold="1" pageScale="1" pageWidth="850" pageHeight="1100" math="0" shadow="0">
      <root>
        <mxCell id="0" />
        <mxCell id="1" parent="0" />
        <mxCell id="myCJCdUXUHbtMIZx52Bf-70" value="" style="endArrow=none;dashed=1;html=1;strokeWidth=2;rounded=0;" edge="1" parent="1">
          <mxGeometry width="50" height="50" relative="1" as="geometry">
            <mxPoint x="585" y="480" as="sourcePoint" />
            <mxPoint x="585" y="213" as="targetPoint" />
          </mxGeometry>
        </mxCell>
        <mxCell id="myCJCdUXUHbtMIZx52Bf-1" value="Customer" style="shape=umlActor;verticalLabelPosition=bottom;verticalAlign=top;html=1;outlineConnect=0;" vertex="1" parent="1">
          <mxGeometry x="20" y="100" width="30" height="60" as="geometry" />
        </mxCell>
        <mxCell id="myCJCdUXUHbtMIZx52Bf-6" value="" style="endArrow=classic;html=1;rounded=0;exitX=1;exitY=0.3333333333333333;exitDx=0;exitDy=0;exitPerimeter=0;" edge="1" parent="1" source="myCJCdUXUHbtMIZx52Bf-1">
          <mxGeometry width="50" height="50" relative="1" as="geometry">
            <mxPoint x="190" y="280" as="sourcePoint" />
            <mxPoint x="129.50000000000023" y="120" as="targetPoint" />
            <Array as="points">
              <mxPoint x="110" y="120" />
            </Array>
          </mxGeometry>
        </mxCell>
        <mxCell id="myCJCdUXUHbtMIZx52Bf-30" value="&lt;font size=&quot;1&quot;&gt;Tap &quot;SipariÅŸ Ver&quot;&lt;/font&gt;" style="edgeLabel;html=1;align=center;verticalAlign=middle;resizable=0;points=[];" connectable="0" vertex="1" parent="myCJCdUXUHbtMIZx52Bf-6">
          <mxGeometry x="-0.1331" relative="1" as="geometry">
            <mxPoint x="-4" y="10" as="offset" />
          </mxGeometry>
        </mxCell>
        <mxCell id="myCJCdUXUHbtMIZx52Bf-15" value="" style="rounded=0;whiteSpace=wrap;html=1;" vertex="1" parent="1">
          <mxGeometry x="130" y="-10" width="10" height="490" as="geometry" />
        </mxCell>
        <mxCell id="myCJCdUXUHbtMIZx52Bf-19" value="" style="rounded=0;whiteSpace=wrap;html=1;" vertex="1" parent="1">
          <mxGeometry x="420" y="160" width="10" height="320" as="geometry" />
        </mxCell>
        <mxCell id="myCJCdUXUHbtMIZx52Bf-20" value="" style="endArrow=classic;html=1;rounded=0;exitX=1;exitY=0.75;exitDx=0;exitDy=0;" edge="1" parent="1" source="myCJCdUXUHbtMIZx52Bf-104">
          <mxGeometry width="50" height="50" relative="1" as="geometry">
            <mxPoint x="250" y="350" as="sourcePoint" />
            <mxPoint x="417" y="182" as="targetPoint" />
          </mxGeometry>
        </mxCell>
        <mxCell id="myCJCdUXUHbtMIZx52Bf-21" value="createOrder(orderData)" style="edgeLabel;html=1;align=center;verticalAlign=middle;resizable=0;points=[];" connectable="0" vertex="1" parent="myCJCdUXUHbtMIZx52Bf-20">
          <mxGeometry x="-0.1825" y="-1" relative="1" as="geometry">
            <mxPoint x="14" y="-18" as="offset" />
          </mxGeometry>
        </mxCell>
        <mxCell id="myCJCdUXUHbtMIZx52Bf-36" value="" style="endArrow=classic;html=1;rounded=0;entryX=0;entryY=0.25;entryDx=0;entryDy=0;" edge="1" parent="1" target="myCJCdUXUHbtMIZx52Bf-38">
          <mxGeometry width="50" height="50" relative="1" as="geometry">
            <mxPoint x="430" y="243" as="sourcePoint" />
            <mxPoint x="580" y="238" as="targetPoint" />
          </mxGeometry>
        </mxCell>
        <mxCell id="myCJCdUXUHbtMIZx52Bf-37" value="placeOrder(orderData)" style="edgeLabel;html=1;align=center;verticalAlign=middle;resizable=0;points=[];" connectable="0" vertex="1" parent="myCJCdUXUHbtMIZx52Bf-36">
          <mxGeometry x="-0.0474" relative="1" as="geometry">
            <mxPoint x="8" y="-19" as="offset" />
          </mxGeometry>
        </mxCell>
        <mxCell id="myCJCdUXUHbtMIZx52Bf-38" value="" style="rounded=0;whiteSpace=wrap;html=1;" vertex="1" parent="1">
          <mxGeometry x="580" y="230" width="10" height="50" as="geometry" />
        </mxCell>
        <mxCell id="myCJCdUXUHbtMIZx52Bf-57" value="Restaurant ,&lt;br&gt;&lt;div&gt;&lt;span style=&quot;background-color: transparent; color: light-dark(rgb(0, 0, 0), rgb(255, 255, 255));&quot;&gt;List&amp;lt;Menu&amp;gt; ,&lt;/span&gt;&lt;/div&gt;&lt;div&gt;&lt;span style=&quot;background-color: transparent; color: light-dark(rgb(0, 0, 0), rgb(255, 255, 255));&quot;&gt;List&amp;lt;OrderItem&amp;gt;&lt;/span&gt;&amp;nbsp;&lt;/div&gt;" style="shape=note;size=9;whiteSpace=wrap;html=1;" vertex="1" parent="1">
          <mxGeometry x="20" y="22.5" width="90" height="57.5" as="geometry" />
        </mxCell>
        <mxCell id="myCJCdUXUHbtMIZx52Bf-60" value="&lt;div&gt;&amp;lt;&amp;lt;view&amp;gt;&amp;gt;&lt;/div&gt;:SingleRestaurantPage" style="rounded=0;whiteSpace=wrap;html=1;" vertex="1" parent="1">
          <mxGeometry x="65" y="-90" width="140" height="30" as="geometry" />
        </mxCell>
        <mxCell id="myCJCdUXUHbtMIZx52Bf-61" value="&lt;div&gt;&amp;lt;&amp;lt;controller&amp;gt;&amp;gt;&lt;/div&gt;:OrderController" style="rounded=0;whiteSpace=wrap;html=1;" vertex="1" parent="1">
          <mxGeometry x="363" y="120" width="125" height="30" as="geometry" />
        </mxCell>
        <mxCell id="myCJCdUXUHbtMIZx52Bf-63" value="&amp;lt;&amp;lt;model&amp;gt;&amp;gt;&lt;div&gt;: Order&lt;/div&gt;" style="rounded=0;whiteSpace=wrap;html=1;" vertex="1" parent="1">
          <mxGeometry x="530" y="180" width="90" height="30" as="geometry" />
        </mxCell>
        <mxCell id="myCJCdUXUHbtMIZx52Bf-66" value="" style="endArrow=none;dashed=1;html=1;strokeWidth=2;rounded=0;" edge="1" parent="1">
          <mxGeometry width="50" height="50" relative="1" as="geometry">
            <mxPoint x="40" y="480" as="sourcePoint" />
            <mxPoint x="40" y="180" as="targetPoint" />
          </mxGeometry>
        </mxCell>
        <mxCell id="myCJCdUXUHbtMIZx52Bf-67" value="" style="endArrow=none;dashed=1;html=1;dashPattern=1 3;strokeWidth=2;rounded=0;exitX=0.796;exitY=1.003;exitDx=0;exitDy=0;exitPerimeter=0;" edge="1" parent="1" source="myCJCdUXUHbtMIZx52Bf-57">
          <mxGeometry width="50" height="50" relative="1" as="geometry">
            <mxPoint x="360" y="270" as="sourcePoint" />
            <mxPoint x="90" y="120" as="targetPoint" />
          </mxGeometry>
        </mxCell>
        <mxCell id="myCJCdUXUHbtMIZx52Bf-68" value="" style="endArrow=none;dashed=1;html=1;strokeWidth=2;rounded=0;entryX=0.5;entryY=1;entryDx=0;entryDy=0;exitX=0.5;exitY=0;exitDx=0;exitDy=0;" edge="1" parent="1" source="myCJCdUXUHbtMIZx52Bf-15" target="myCJCdUXUHbtMIZx52Bf-60">
          <mxGeometry width="50" height="50" relative="1" as="geometry">
            <mxPoint x="360" y="270" as="sourcePoint" />
            <mxPoint x="410" y="220" as="targetPoint" />
          </mxGeometry>
        </mxCell>
        <mxCell id="myCJCdUXUHbtMIZx52Bf-69" value="" style="endArrow=none;dashed=1;html=1;strokeWidth=2;rounded=0;entryX=0.5;entryY=1;entryDx=0;entryDy=0;" edge="1" parent="1" target="myCJCdUXUHbtMIZx52Bf-61">
          <mxGeometry width="50" height="50" relative="1" as="geometry">
            <mxPoint x="426" y="160" as="sourcePoint" />
            <mxPoint x="374.58000000000004" y="40" as="targetPoint" />
          </mxGeometry>
        </mxCell>
        <mxCell id="myCJCdUXUHbtMIZx52Bf-81" value="&amp;lt;&amp;lt;model&amp;gt;&amp;gt;&lt;div&gt;: Payment&lt;/div&gt;" style="rounded=0;whiteSpace=wrap;html=1;" vertex="1" parent="1">
          <mxGeometry x="450" y="-90" width="90" height="30" as="geometry" />
        </mxCell>
        <mxCell id="myCJCdUXUHbtMIZx52Bf-82" value="" style="rounded=0;whiteSpace=wrap;html=1;" vertex="1" parent="1">
          <mxGeometry x="490" width="10" height="20" as="geometry" />
        </mxCell>
        <mxCell id="myCJCdUXUHbtMIZx52Bf-84" value="" style="endArrow=none;dashed=1;html=1;strokeWidth=2;rounded=0;entryX=0.5;entryY=1;entryDx=0;entryDy=0;exitX=0.5;exitY=0;exitDx=0;exitDy=0;" edge="1" parent="1">
          <mxGeometry width="50" height="50" relative="1" as="geometry">
            <mxPoint x="494.58" y="-2.2737367544323206e-13" as="sourcePoint" />
            <mxPoint x="494.58" y="-60" as="targetPoint" />
          </mxGeometry>
        </mxCell>
        <mxCell id="myCJCdUXUHbtMIZx52Bf-89" value="" style="endArrow=classic;html=1;rounded=0;exitX=1.083;exitY=0.12;exitDx=0;exitDy=0;exitPerimeter=0;" edge="1" parent="1">
          <mxGeometry width="50" height="50" relative="1" as="geometry">
            <mxPoint x="140.00000000000014" y="1.6699999999999307" as="sourcePoint" />
            <mxPoint x="420" as="targetPoint" />
          </mxGeometry>
        </mxCell>
        <mxCell id="myCJCdUXUHbtMIZx52Bf-90" value="&lt;div&gt;customer.getPaymentMethods();&lt;/div&gt;" style="edgeLabel;html=1;align=center;verticalAlign=middle;resizable=0;points=[];" connectable="0" vertex="1" parent="myCJCdUXUHbtMIZx52Bf-89">
          <mxGeometry x="-0.1825" y="-1" relative="1" as="geometry">
            <mxPoint x="14" y="-12" as="offset" />
          </mxGeometry>
        </mxCell>
        <mxCell id="myCJCdUXUHbtMIZx52Bf-92" value="" style="rounded=0;whiteSpace=wrap;html=1;" vertex="1" parent="1">
          <mxGeometry x="610" width="10" height="170" as="geometry" />
        </mxCell>
        <mxCell id="myCJCdUXUHbtMIZx52Bf-94" value="Bank" style="rounded=0;whiteSpace=wrap;html=1;" vertex="1" parent="1">
          <mxGeometry x="580" y="-90" width="70" height="30" as="geometry" />
        </mxCell>
        <mxCell id="myCJCdUXUHbtMIZx52Bf-95" value="" style="endArrow=none;dashed=1;html=1;strokeWidth=2;rounded=0;entryX=0.5;entryY=1;entryDx=0;entryDy=0;exitX=0.5;exitY=0;exitDx=0;exitDy=0;" edge="1" parent="1" source="myCJCdUXUHbtMIZx52Bf-92" target="myCJCdUXUHbtMIZx52Bf-94">
          <mxGeometry width="50" height="50" relative="1" as="geometry">
            <mxPoint x="595" y="300" as="sourcePoint" />
            <mxPoint x="592" y="272" as="targetPoint" />
          </mxGeometry>
        </mxCell>
        <mxCell id="myCJCdUXUHbtMIZx52Bf-96" value="" style="endArrow=classic;html=1;rounded=0;exitX=1.25;exitY=0.182;exitDx=0;exitDy=0;exitPerimeter=0;entryX=0.083;entryY=0.183;entryDx=0;entryDy=0;entryPerimeter=0;" edge="1" parent="1" source="myCJCdUXUHbtMIZx52Bf-15">
          <mxGeometry width="50" height="50" relative="1" as="geometry">
            <mxPoint x="500.8400000000001" y="79.99999999999994" as="sourcePoint" />
            <mxPoint x="610.0000000000001" y="80.48999999999995" as="targetPoint" />
            <Array as="points" />
          </mxGeometry>
        </mxCell>
        <mxCell id="myCJCdUXUHbtMIZx52Bf-97" value="makePayment(p)" style="edgeLabel;html=1;align=center;verticalAlign=middle;resizable=0;points=[];" connectable="0" vertex="1" parent="myCJCdUXUHbtMIZx52Bf-96">
          <mxGeometry x="-0.2267" y="-3" relative="1" as="geometry">
            <mxPoint x="-13" y="2" as="offset" />
          </mxGeometry>
        </mxCell>
        <mxCell id="myCJCdUXUHbtMIZx52Bf-98" value="" style="endArrow=classic;html=1;rounded=0;dashed=1;entryX=1;entryY=0.068;entryDx=0;entryDy=0;entryPerimeter=0;exitX=0;exitY=0.624;exitDx=0;exitDy=0;exitPerimeter=0;" edge="1" parent="1" source="myCJCdUXUHbtMIZx52Bf-92" target="myCJCdUXUHbtMIZx52Bf-103">
          <mxGeometry width="50" height="50" relative="1" as="geometry">
            <mxPoint x="600" y="137" as="sourcePoint" />
            <mxPoint x="144" y="141" as="targetPoint" />
          </mxGeometry>
        </mxCell>
        <mxCell id="myCJCdUXUHbtMIZx52Bf-99" value="return isValid" style="edgeLabel;html=1;align=center;verticalAlign=middle;resizable=0;points=[];" connectable="0" vertex="1" parent="myCJCdUXUHbtMIZx52Bf-98">
          <mxGeometry x="-0.125" y="2" relative="1" as="geometry">
            <mxPoint as="offset" />
          </mxGeometry>
        </mxCell>
        <mxCell id="myCJCdUXUHbtMIZx52Bf-103" value="alt&amp;nbsp; &amp;nbsp; &amp;nbsp; &amp;nbsp; &amp;nbsp; &amp;nbsp; &amp;nbsp; &amp;nbsp; &amp;nbsp; &amp;nbsp; &amp;nbsp; &amp;nbsp; &amp;nbsp; &amp;nbsp; &amp;nbsp; &amp;nbsp; &amp;nbsp; &amp;nbsp; &amp;nbsp; &amp;nbsp; &amp;nbsp; &amp;nbsp; &amp;nbsp; &amp;nbsp; &amp;nbsp; &amp;nbsp; &amp;nbsp; &amp;nbsp; &amp;nbsp; &amp;nbsp; &amp;nbsp; &amp;nbsp; &amp;nbsp; &amp;nbsp; &amp;nbsp; &amp;nbsp; &amp;nbsp; &amp;nbsp; &amp;nbsp;&amp;nbsp;&lt;div&gt;&lt;br&gt;&lt;/div&gt;&lt;div&gt;&amp;nbsp; &amp;nbsp; &amp;nbsp; &amp;nbsp; &amp;nbsp; &amp;nbsp; &amp;nbsp; &amp;nbsp; &amp;nbsp; &amp;nbsp; &amp;nbsp; &amp;nbsp;&amp;nbsp;&lt;div&gt;&lt;br&gt;&lt;/div&gt;&lt;div&gt;&lt;br&gt;&lt;/div&gt;&lt;/div&gt;" style="rounded=0;whiteSpace=wrap;html=1;" vertex="1" parent="1">
          <mxGeometry x="140" y="100" width="170" height="120" as="geometry" />
        </mxCell>
        <mxCell id="myCJCdUXUHbtMIZx52Bf-104" value="if(isValid)" style="rounded=0;whiteSpace=wrap;html=1;" vertex="1" parent="1">
          <mxGeometry x="190" y="160" width="120" height="30" as="geometry" />
        </mxCell>
        <mxCell id="myCJCdUXUHbtMIZx52Bf-106" value="else" style="rounded=0;whiteSpace=wrap;html=1;" vertex="1" parent="1">
          <mxGeometry x="190" y="190" width="120" height="30" as="geometry" />
        </mxCell>
        <mxCell id="myCJCdUXUHbtMIZx52Bf-112" value="" style="endArrow=classic;html=1;rounded=0;exitX=0.5;exitY=1;exitDx=0;exitDy=0;edgeStyle=orthogonalEdgeStyle;dashed=1;" edge="1" parent="1" source="myCJCdUXUHbtMIZx52Bf-106">
          <mxGeometry width="50" height="50" relative="1" as="geometry">
            <mxPoint x="340" y="340" as="sourcePoint" />
            <mxPoint x="142" y="240" as="targetPoint" />
            <Array as="points">
              <mxPoint x="250" y="240" />
              <mxPoint x="142" y="240" />
            </Array>
          </mxGeometry>
        </mxCell>
        <mxCell id="myCJCdUXUHbtMIZx52Bf-113" value="ShowMessage :&amp;nbsp; &quot;Invalid Payment Method&quot;" style="edgeLabel;html=1;align=center;verticalAlign=middle;resizable=0;points=[];" connectable="0" vertex="1" parent="myCJCdUXUHbtMIZx52Bf-112">
          <mxGeometry x="0.2808" y="2" relative="1" as="geometry">
            <mxPoint x="62" y="13" as="offset" />
          </mxGeometry>
        </mxCell>
        <mxCell id="myCJCdUXUHbtMIZx52Bf-114" value="" style="endArrow=classic;html=1;rounded=0;entryX=1.167;entryY=0.318;entryDx=0;entryDy=0;entryPerimeter=0;exitX=0;exitY=0.637;exitDx=0;exitDy=0;exitPerimeter=0;dashed=1;" edge="1" parent="1" source="myCJCdUXUHbtMIZx52Bf-38" target="myCJCdUXUHbtMIZx52Bf-19">
          <mxGeometry width="50" height="50" relative="1" as="geometry">
            <mxPoint x="340" y="340" as="sourcePoint" />
            <mxPoint x="390" y="290" as="targetPoint" />
          </mxGeometry>
        </mxCell>
        <mxCell id="myCJCdUXUHbtMIZx52Bf-116" value="Return Order" style="edgeLabel;html=1;align=center;verticalAlign=middle;resizable=0;points=[];" connectable="0" vertex="1" parent="myCJCdUXUHbtMIZx52Bf-114">
          <mxGeometry x="0.0787" y="2" relative="1" as="geometry">
            <mxPoint as="offset" />
          </mxGeometry>
        </mxCell>
        <mxCell id="myCJCdUXUHbtMIZx52Bf-118" value="&amp;lt;&amp;lt;model&amp;gt;&amp;gt;&lt;div&gt;: Restaurant&lt;/div&gt;" style="rounded=0;whiteSpace=wrap;html=1;" vertex="1" parent="1">
          <mxGeometry x="640" y="180" width="90" height="30" as="geometry" />
        </mxCell>
        <mxCell id="myCJCdUXUHbtMIZx52Bf-120" value="" style="endArrow=none;dashed=1;html=1;strokeWidth=2;rounded=0;entryX=0.5;entryY=1;entryDx=0;entryDy=0;" edge="1" parent="1" source="myCJCdUXUHbtMIZx52Bf-117" target="myCJCdUXUHbtMIZx52Bf-118">
          <mxGeometry width="50" height="50" relative="1" as="geometry">
            <mxPoint x="685" y="480" as="sourcePoint" />
            <mxPoint x="587" y="330" as="targetPoint" />
          </mxGeometry>
        </mxCell>
        <mxCell id="myCJCdUXUHbtMIZx52Bf-121" value="" style="endArrow=classic;html=1;rounded=0;" edge="1" parent="1">
          <mxGeometry width="50" height="50" relative="1" as="geometry">
            <mxPoint x="430" y="319.58" as="sourcePoint" />
            <mxPoint x="680" y="319.58" as="targetPoint" />
          </mxGeometry>
        </mxCell>
        <mxCell id="myCJCdUXUHbtMIZx52Bf-122" value="addOrder(Order)" style="edgeLabel;html=1;align=center;verticalAlign=middle;resizable=0;points=[];" connectable="0" vertex="1" parent="myCJCdUXUHbtMIZx52Bf-121">
          <mxGeometry x="-0.0474" relative="1" as="geometry">
            <mxPoint x="8" y="-19" as="offset" />
          </mxGeometry>
        </mxCell>
        <mxCell id="myCJCdUXUHbtMIZx52Bf-123" value="" style="endArrow=classic;html=1;rounded=0;entryX=0.75;entryY=0.701;entryDx=0;entryDy=0;entryPerimeter=0;exitX=0;exitY=0.653;exitDx=0;exitDy=0;exitPerimeter=0;" edge="1" parent="1">
          <mxGeometry width="50" height="50" relative="1" as="geometry">
            <mxPoint x="682.5" y="340.0000000000001" as="sourcePoint" />
            <mxPoint x="430" y="341.66999999999996" as="targetPoint" />
          </mxGeometry>
        </mxCell>
        <mxCell id="myCJCdUXUHbtMIZx52Bf-125" value="" style="endArrow=none;dashed=1;html=1;strokeWidth=2;rounded=0;entryX=0.5;entryY=1;entryDx=0;entryDy=0;" edge="1" parent="1" target="myCJCdUXUHbtMIZx52Bf-117">
          <mxGeometry width="50" height="50" relative="1" as="geometry">
            <mxPoint x="685" y="480" as="sourcePoint" />
            <mxPoint x="685" y="210" as="targetPoint" />
          </mxGeometry>
        </mxCell>
        <mxCell id="myCJCdUXUHbtMIZx52Bf-117" value="" style="rounded=0;whiteSpace=wrap;html=1;" vertex="1" parent="1">
          <mxGeometry x="680" y="310" width="10" height="50" as="geometry" />
        </mxCell>
        <mxCell id="myCJCdUXUHbtMIZx52Bf-126" value="&amp;lt;&amp;lt;model&amp;gt;&amp;gt;&lt;div&gt;: Customer&lt;/div&gt;" style="rounded=0;whiteSpace=wrap;html=1;" vertex="1" parent="1">
          <mxGeometry x="740" y="180" width="90" height="30" as="geometry" />
        </mxCell>
        <mxCell id="myCJCdUXUHbtMIZx52Bf-128" value="" style="endArrow=none;dashed=1;html=1;strokeWidth=2;rounded=0;entryX=0.5;entryY=1;entryDx=0;entryDy=0;" edge="1" parent="1" source="myCJCdUXUHbtMIZx52Bf-129">
          <mxGeometry width="50" height="50" relative="1" as="geometry">
            <mxPoint x="785" y="480" as="sourcePoint" />
            <mxPoint x="784.58" y="210" as="targetPoint" />
          </mxGeometry>
        </mxCell>
        <mxCell id="myCJCdUXUHbtMIZx52Bf-130" value="" style="endArrow=none;dashed=1;html=1;strokeWidth=2;rounded=0;entryX=0.5;entryY=1;entryDx=0;entryDy=0;" edge="1" parent="1" target="myCJCdUXUHbtMIZx52Bf-129">
          <mxGeometry width="50" height="50" relative="1" as="geometry">
            <mxPoint x="785" y="480" as="sourcePoint" />
            <mxPoint x="784.58" y="210" as="targetPoint" />
          </mxGeometry>
        </mxCell>
        <mxCell id="myCJCdUXUHbtMIZx52Bf-129" value="" style="rounded=0;whiteSpace=wrap;html=1;" vertex="1" parent="1">
          <mxGeometry x="780" y="360" width="10" height="50" as="geometry" />
        </mxCell>
        <mxCell id="myCJCdUXUHbtMIZx52Bf-131" value="" style="endArrow=classic;html=1;rounded=0;entryX=0;entryY=0.25;entryDx=0;entryDy=0;exitX=1.333;exitY=0.667;exitDx=0;exitDy=0;exitPerimeter=0;" edge="1" parent="1" source="myCJCdUXUHbtMIZx52Bf-19" target="myCJCdUXUHbtMIZx52Bf-129">
          <mxGeometry width="50" height="50" relative="1" as="geometry">
            <mxPoint x="440" y="370" as="sourcePoint" />
            <mxPoint x="690" y="370" as="targetPoint" />
          </mxGeometry>
        </mxCell>
        <mxCell id="myCJCdUXUHbtMIZx52Bf-132" value="addOrder(Order)" style="edgeLabel;html=1;align=center;verticalAlign=middle;resizable=0;points=[];" connectable="0" vertex="1" parent="myCJCdUXUHbtMIZx52Bf-131">
          <mxGeometry x="-0.0474" relative="1" as="geometry">
            <mxPoint x="8" y="-19" as="offset" />
          </mxGeometry>
        </mxCell>
        <mxCell id="myCJCdUXUHbtMIZx52Bf-133" value="" style="endArrow=classic;html=1;rounded=0;entryX=1;entryY=0.724;entryDx=0;entryDy=0;entryPerimeter=0;exitX=-0.25;exitY=0.637;exitDx=0;exitDy=0;exitPerimeter=0;" edge="1" parent="1" source="myCJCdUXUHbtMIZx52Bf-129" target="myCJCdUXUHbtMIZx52Bf-19">
          <mxGeometry width="50" height="50" relative="1" as="geometry">
            <mxPoint x="690" y="390.0000000000001" as="sourcePoint" />
            <mxPoint x="437.5" y="391.66999999999996" as="targetPoint" />
          </mxGeometry>
        </mxCell>
        <mxCell id="myCJCdUXUHbtMIZx52Bf-134" value="ShowMessage :&amp;nbsp; &quot;Order placed successfully&quot;" style="endArrow=classic;html=1;rounded=0;entryX=1;entryY=0.724;entryDx=0;entryDy=0;entryPerimeter=0;exitX=0;exitY=0.816;exitDx=0;exitDy=0;exitPerimeter=0;" edge="1" parent="1" source="myCJCdUXUHbtMIZx52Bf-19">
          <mxGeometry width="50" height="50" relative="1" as="geometry">
            <mxPoint x="490" y="420" as="sourcePoint" />
            <mxPoint x="142" y="420" as="targetPoint" />
          </mxGeometry>
        </mxCell>
        <mxCell id="myCJCdUXUHbtMIZx52Bf-135" value="" style="rounded=0;whiteSpace=wrap;html=1;" vertex="1" parent="1">
          <mxGeometry x="420.5" width="10" height="70" as="geometry" />
        </mxCell>
        <mxCell id="myCJCdUXUHbtMIZx52Bf-136" value="&amp;lt;&amp;lt;controller&amp;gt;&amp;gt;&lt;div&gt;: Customer&lt;/div&gt;" style="rounded=0;whiteSpace=wrap;html=1;" vertex="1" parent="1">
          <mxGeometry x="360" y="-90" width="90" height="30" as="geometry" />
        </mxCell>
        <mxCell id="myCJCdUXUHbtMIZx52Bf-137" value="" style="endArrow=none;dashed=1;html=1;strokeWidth=2;rounded=0;entryX=0.5;entryY=1;entryDx=0;entryDy=0;exitX=0.5;exitY=0;exitDx=0;exitDy=0;" edge="1" parent="1">
          <mxGeometry width="50" height="50" relative="1" as="geometry">
            <mxPoint x="425.08" y="-2.2737367544323206e-13" as="sourcePoint" />
            <mxPoint x="425.08" y="-60" as="targetPoint" />
          </mxGeometry>
        </mxCell>
        <mxCell id="myCJCdUXUHbtMIZx52Bf-138" value="&lt;div&gt;&lt;br&gt;&lt;/div&gt;loop&amp;nbsp; &amp;nbsp; &amp;nbsp; &amp;nbsp; &amp;nbsp; &amp;nbsp; &amp;nbsp; &amp;nbsp; &amp;nbsp;add(p)&lt;div&gt;&lt;div&gt;&lt;br&gt;&lt;/div&gt;&lt;div&gt;&lt;br&gt;&lt;/div&gt;&lt;/div&gt;" style="rounded=0;whiteSpace=wrap;html=1;" vertex="1" parent="1">
          <mxGeometry x="430" y="10" width="80" height="40" as="geometry" />
        </mxCell>
        <mxCell id="myCJCdUXUHbtMIZx52Bf-139" value="" style="rounded=0;whiteSpace=wrap;html=1;" vertex="1" parent="1">
          <mxGeometry x="550" y="5" width="10" height="65" as="geometry" />
        </mxCell>
        <mxCell id="myCJCdUXUHbtMIZx52Bf-140" value="&lt;font style=&quot;font-size: 9px;&quot;&gt;MatchedResults:&lt;/font&gt;&lt;div&gt;&lt;font style=&quot;font-size: 9px;&quot;&gt;&amp;nbsp;vector&amp;lt;PaymentMethod&amp;gt;&lt;/font&gt;&lt;/div&gt;" style="rounded=0;whiteSpace=wrap;html=1;" vertex="1" parent="1">
          <mxGeometry x="510" y="-50" width="100" height="30" as="geometry" />
        </mxCell>
        <mxCell id="myCJCdUXUHbtMIZx52Bf-141" value="" style="endArrow=none;dashed=1;html=1;strokeWidth=2;rounded=0;entryX=0.5;entryY=1;entryDx=0;entryDy=0;exitX=0.5;exitY=0;exitDx=0;exitDy=0;" edge="1" parent="1" source="myCJCdUXUHbtMIZx52Bf-139">
          <mxGeometry width="50" height="50" relative="1" as="geometry">
            <mxPoint x="555" as="sourcePoint" />
            <mxPoint x="554.5799999999999" y="-20" as="targetPoint" />
          </mxGeometry>
        </mxCell>
        <mxCell id="myCJCdUXUHbtMIZx52Bf-142" value="" style="endArrow=classic;html=1;rounded=0;entryX=0;entryY=0.5;entryDx=0;entryDy=0;" edge="1" parent="1">
          <mxGeometry width="50" height="50" relative="1" as="geometry">
            <mxPoint x="510" y="20" as="sourcePoint" />
            <mxPoint x="550" y="20.499999999999773" as="targetPoint" />
          </mxGeometry>
        </mxCell>
        <mxCell id="myCJCdUXUHbtMIZx52Bf-143" value="" style="endArrow=classic;html=1;rounded=0;entryX=1.25;entryY=0.126;entryDx=0;entryDy=0;entryPerimeter=0;" edge="1" parent="1">
          <mxGeometry width="50" height="50" relative="1" as="geometry">
            <mxPoint x="418.5" y="29.130000000000003" as="sourcePoint" />
            <mxPoint x="140" y="30.87000000000001" as="targetPoint" />
          </mxGeometry>
        </mxCell>
        <mxCell id="myCJCdUXUHbtMIZx52Bf-144" value="Matched PaymentMethods" style="edgeLabel;html=1;align=center;verticalAlign=middle;resizable=0;points=[];" connectable="0" vertex="1" parent="myCJCdUXUHbtMIZx52Bf-143">
          <mxGeometry x="-0.1825" y="-1" relative="1" as="geometry">
            <mxPoint x="-17" y="-12" as="offset" />
          </mxGeometry>
        </mxCell>
        <mxCell id="myCJCdUXUHbtMIZx52Bf-145" value="" style="endArrow=classic;html=1;rounded=0;edgeStyle=orthogonalEdgeStyle;exitX=1.333;exitY=0.102;exitDx=0;exitDy=0;exitPerimeter=0;" edge="1" parent="1" source="myCJCdUXUHbtMIZx52Bf-15">
          <mxGeometry width="50" height="50" relative="1" as="geometry">
            <mxPoint x="172.5" y="70.00000000000009" as="sourcePoint" />
            <mxPoint x="143" y="70" as="targetPoint" />
          </mxGeometry>
        </mxCell>
        <mxCell id="myCJCdUXUHbtMIZx52Bf-147" value="Choose a Payment Method &quot;p&quot;" style="edgeLabel;html=1;align=center;verticalAlign=middle;resizable=0;points=[];" connectable="0" vertex="1" parent="myCJCdUXUHbtMIZx52Bf-145">
          <mxGeometry x="-0.1248" y="3" relative="1" as="geometry">
            <mxPoint x="67" as="offset" />
          </mxGeometry>
        </mxCell>
      </root>
    </mxGraphModel>
  </diagram>
</mxfile>
